<?xml version="1.0" encoding="utf-8"?>
<!-- Generator: Adobe Illustrator 25.0.0, SVG Export Plug-In . SVG Version: 6.00 Build 0)  -->
<svg version="1.1" id="Layer_1" xmlns="http://www.w3.org/2000/svg" xmlns:xlink="http://www.w3.org/1999/xlink" x="0px" y="0px"
	 viewBox="0 0 408.3 408.3" style="enable-background:new 0 0 408.3 408.3;" xml:space="preserve">
<style type="text/css">
	.st0{fill:#007FFB;}
	.st1{fill:none;stroke:#1A2E35;stroke-width:3;stroke-miterlimit:10;}
</style>
<g>
	<path d="M253.5,75.8v197.8c0,5.2-4.2,9.4-9.4,9.4h-85.9c-24.9,0-43.4-1.5-55.4-4.6s-22.7-8.2-31.9-15.5
		C59,253.6,50,241.6,43.9,226.7c-6.1-14.9-9.2-32.2-9.2-51.9c0-19.7,3.1-37.1,9.2-52c6.1-14.9,15.1-27,26.9-36.2
		c9.3-7.3,19.9-12.5,31.9-15.6s30.5-4.6,55.4-4.6H244C249.2,66.3,253.5,70.6,253.5,75.8z M115.8,97c-8.9,2.3-16.4,6.2-22.4,11.4
		c-7.5,6.4-13.5,15.5-17.8,27.2c-4.3,11.7-6.5,24.6-6.5,38.9c0,14.2,2.2,27.1,6.5,38.9c4.3,11.8,10.3,20.9,17.8,27.3
		c6.1,5.3,13.5,9.1,22.4,11.5c8.9,2.4,20.5,3.6,34.9,3.6h65.3c5.2,0,9.4-4.2,9.4-9.4V102.9c0-5.2-4.2-9.4-9.4-9.4h-65.3
		C136.3,93.4,124.7,94.6,115.8,97z"/>
	<path class="st0" d="M369.8,219.1c0,23.2-6.2,40.6-18.5,52.2s-30.8,17.4-55.4,17.4c-13.1,0-24.5-2.1-34.2-6.3
		c-9.7-4.2-17.9-10.6-24.5-19.2c-4.4-5.7-7.5-12.3-9.4-19.8c-1.9-7.6-2.9-18.8-2.9-33.6V71.2c0-1.6,0-3.2,0-4.8c1.6,0,3.2,0,4.8,0
		H251c2.7,0,4.8,2.2,4.8,4.8v128.5c0,13.1,0.3,22.7,1,28.7c0.7,6.1,1.9,10.5,3.5,13.5c3.4,6.5,8.1,11.3,14,14.2
		c5.9,2.9,13.7,4.4,23.5,4.4c14.4,0,24.8-3.6,31.3-10.8c6.5-7.2,9.7-18.9,9.7-35c0-2.7,2.2-4.8,4.8-4.8H365c2.7,0,4.8,2.2,4.8,4.8
		V219.1z"/>
	<g>
		<path d="M99.1,312.9h11.3c2.9,0,5.5,0.3,7.6,0.8s4,1.6,5.7,3.1c4.5,3.8,6.7,9.6,6.7,17.5c0,2.6-0.2,4.9-0.7,7.1
			c-0.4,2.1-1.1,4-2.1,5.8s-2.1,3.2-3.6,4.6c-1.2,1-2.4,1.9-3.8,2.5c-1.4,0.6-2.8,1.1-4.4,1.3c-1.6,0.3-3.3,0.4-5.3,0.4H99.3
			c-1.6,0-2.8-0.2-3.6-0.7c-0.8-0.5-1.3-1.2-1.6-2c-0.2-0.9-0.4-2-0.4-3.4v-31.5c0-1.9,0.4-3.2,1.3-4.1
			C95.8,313.4,97.2,312.9,99.1,312.9z M102.4,319.8V349h6.6c1.4,0,2.6,0,3.4-0.1s1.7-0.3,2.5-0.6s1.6-0.8,2.3-1.3
			c2.9-2.5,4.4-6.7,4.4-12.7c0-4.2-0.6-7.4-1.9-9.5c-1.3-2.1-2.9-3.5-4.7-4s-4.1-0.9-6.8-0.9H102.4z"/>
		<path d="M145.5,345.1v6.7c0,1.6-0.4,2.8-1.1,3.6s-1.7,1.2-2.9,1.2c-1.2,0-2.1-0.4-2.8-1.2c-0.7-0.8-1.1-2-1.1-3.6v-22.3
			c0-3.6,1.3-5.4,3.9-5.4c1.3,0,2.3,0.4,2.9,1.3s0.9,2.1,1,3.7c1-1.6,1.9-2.9,2.9-3.7c1-0.8,2.3-1.3,4-1.3c1.7,0,3.3,0.4,4.9,1.3
			s2.4,2,2.4,3.3c0,1-0.3,1.8-1,2.4s-1.4,1-2.2,1c-0.3,0-1-0.2-2.1-0.5c-1.1-0.4-2.1-0.5-3-0.5c-1.2,0-2.1,0.3-2.9,0.9
			c-0.7,0.6-1.3,1.5-1.7,2.7s-0.7,2.7-0.8,4.3C145.6,340.6,145.5,342.7,145.5,345.1z"/>
		<path d="M167.9,320.4c-1.1,0-2.1-0.3-2.9-1s-1.2-1.7-1.2-2.9c0-1.1,0.4-2.1,1.2-2.8c0.8-0.7,1.8-1.1,2.8-1.1c1,0,2,0.3,2.8,1
			c0.8,0.7,1.2,1.6,1.2,2.9c0,1.2-0.4,2.2-1.2,2.9C169.9,320,168.9,320.4,167.9,320.4z M171.8,328.6v23.1c0,1.6-0.4,2.8-1.1,3.6
			s-1.7,1.2-2.9,1.2s-2.1-0.4-2.9-1.3s-1.1-2-1.1-3.6v-22.9c0-1.6,0.4-2.8,1.1-3.6s1.7-1.2,2.9-1.2s2.1,0.4,2.9,1.2
			S171.8,327.2,171.8,328.6z"/>
		<path d="M185.7,329.1l6.5,18.2l7-19c0.5-1.5,1.1-2.6,1.6-3.2s1.3-1,2.4-1c1,0,1.9,0.3,2.6,1s1.1,1.5,1.1,2.4
			c0,0.4-0.1,0.8-0.2,1.2s-0.3,0.9-0.4,1.3s-0.4,0.9-0.6,1.4l-7.7,19c-0.2,0.5-0.5,1.2-0.8,2.1c-0.3,0.8-0.7,1.6-1.1,2.2
			c-0.4,0.6-0.9,1.1-1.6,1.4s-1.4,0.5-2.2,0.5c-1.1,0-2-0.3-2.7-0.8s-1.2-1.1-1.5-1.7s-0.9-1.8-1.6-3.6l-7.6-18.8
			c-0.2-0.5-0.4-0.9-0.5-1.4c-0.2-0.5-0.3-0.9-0.5-1.4c-0.1-0.5-0.2-0.9-0.2-1.3c0-0.5,0.2-1.1,0.5-1.6c0.3-0.5,0.8-1,1.4-1.3
			s1.2-0.5,1.9-0.5c1.3,0,2.2,0.4,2.7,1.1S185.1,327.3,185.7,329.1z"/>
		<path class="st0" d="M221.7,317.5v31.3h17.6c1.4,0,2.5,0.3,3.2,1s1.1,1.5,1.1,2.6c0,1.1-0.4,1.9-1.1,2.6s-1.8,1-3.3,1h-21
			c-1.9,0-3.3-0.4-4.1-1.3s-1.2-2.2-1.2-4.1v-33.1c0-1.8,0.4-3.1,1.2-4s1.8-1.3,3.1-1.3c1.3,0,2.4,0.4,3.2,1.3
			S221.7,315.7,221.7,317.5z"/>
		<path class="st0" d="M278.8,340.4c0,2.4-0.4,4.6-1.1,6.6s-1.8,3.7-3.2,5.2s-3.1,2.6-5,3.3s-4.2,1.2-6.6,1.2
			c-2.4,0-4.6-0.4-6.5-1.2s-3.6-1.9-5-3.4s-2.5-3.2-3.2-5.2s-1.1-4.2-1.1-6.6c0-2.4,0.4-4.6,1.1-6.7s1.8-3.7,3.2-5.2s3.1-2.5,5-3.3
			s4.2-1.2,6.5-1.2c2.4,0,4.6,0.4,6.6,1.2s3.7,1.9,5.1,3.3s2.5,3.2,3.2,5.2S278.8,338,278.8,340.4z M270.8,340.4
			c0-3.3-0.7-5.8-2.2-7.6s-3.4-2.7-5.8-2.7c-1.6,0-2.9,0.4-4.1,1.2s-2.1,2-2.8,3.6s-1,3.4-1,5.5c0,2.1,0.3,3.9,1,5.5
			s1.5,2.8,2.7,3.6s2.6,1.2,4.2,1.2c2.4,0,4.4-0.9,5.8-2.7S270.8,343.6,270.8,340.4z"/>
		<path class="st0" d="M314.5,330v23.2c0,2.7-0.3,4.9-0.8,6.9s-1.5,3.5-2.7,4.7s-2.9,2.2-4.9,2.8s-4.5,0.9-7.5,0.9
			c-2.8,0-5.2-0.4-7.4-1.2s-3.8-1.8-5-3s-1.8-2.5-1.8-3.8c0-1,0.3-1.8,1-2.4s1.5-0.9,2.4-0.9c1.2,0,2.2,0.5,3.1,1.6
			c0.4,0.5,0.9,1.1,1.3,1.6s1,1,1.5,1.4s1.2,0.7,2,0.8s1.7,0.3,2.7,0.3c2.1,0,3.7-0.3,4.8-0.9s1.9-1.4,2.4-2.4s0.7-2.1,0.8-3.3
			s0.1-3.1,0.2-5.7c-1.2,1.7-2.7,3-4.3,3.9s-3.5,1.3-5.8,1.3c-2.7,0-5-0.7-7-2.1s-3.5-3.3-4.6-5.7s-1.6-5.3-1.6-8.5
			c0-2.4,0.3-4.6,1-6.5s1.6-3.6,2.8-4.9s2.6-2.3,4.2-3s3.3-1,5.2-1c2.3,0,4.2,0.4,5.9,1.3s3.2,2.2,4.6,4.1v-1.1c0-1.4,0.3-2.5,1-3.2
			s1.6-1.1,2.6-1.1c1.5,0,2.6,0.5,3.1,1.5S314.5,328.1,314.5,330z M291.3,340.1c0,3.2,0.7,5.7,2.1,7.4s3.2,2.5,5.5,2.5
			c1.3,0,2.6-0.4,3.8-1.1s2.1-1.8,2.9-3.2s1.1-3.2,1.1-5.2c0-3.3-0.7-5.8-2.2-7.6s-3.3-2.7-5.7-2.7c-2.3,0-4.1,0.9-5.5,2.6
			S291.3,336.9,291.3,340.1z"/>
	</g>
	<circle class="st1" cx="204.2" cy="204.2" r="202.7"/>
</g>
</svg>
