<?xml version="1.0" encoding="utf-8"?>
<!-- Generator: Adobe Illustrator 28.0.0, SVG Export Plug-In . SVG Version: 6.00 Build 0)  -->
<svg version="1.1"
	 id="svg406" xmlns:svg="http://www.w3.org/2000/svg" xmlns:sodipodi="http://sodipodi.sourceforge.net/DTD/sodipodi-0.dtd" xmlns:krita="http://krita.org/namespaces/svg/krita" xmlns:inkscape="http://www.inkscape.org/namespaces/inkscape" inkscape:version="1.2 (dc2aedaf03, 2022-05-15)" sodipodi:docname="ANRI2.svg"
	 xmlns="http://www.w3.org/2000/svg" xmlns:xlink="http://www.w3.org/1999/xlink" x="0px" y="0px" viewBox="0 0 2160 585.6"
	 style="enable-background:new 0 0 2160 585.6;" xml:space="preserve">
<style type="text/css">
	
		.st0{fill-rule:evenodd;clip-rule:evenodd;stroke:#000000;stroke-width:54.5664;stroke-linecap:square;stroke-linejoin:round;stroke-miterlimit:6.0629;}
	.st1{fill-rule:evenodd;clip-rule:evenodd;fill:#FFFFFF;}
	
		.st2{fill-rule:evenodd;clip-rule:evenodd;stroke:#000000;stroke-width:0.6759;stroke-linecap:square;stroke-linejoin:bevel;stroke-miterlimit:5.6326;}
	
		.st3{fill-rule:evenodd;clip-rule:evenodd;fill:#FFFFFF;stroke:#FFFFFF;stroke-width:15.7205;stroke-linecap:square;stroke-linejoin:round;stroke-miterlimit:6.5502;}
	
		.st4{fill-rule:evenodd;clip-rule:evenodd;fill:#FFFFFF;stroke:#FFFFFF;stroke-width:0.7276;stroke-linecap:square;stroke-linejoin:round;stroke-miterlimit:6.0629;}
	
		.st5{fill-rule:evenodd;clip-rule:evenodd;fill:#FFFFFF;stroke:#FFFFFF;stroke-width:9.6;stroke-linecap:square;stroke-linejoin:bevel;}
	.st6{stroke:#000000;stroke-width:9.6;stroke-linecap:square;stroke-linejoin:bevel;}
	.st7{fill-rule:evenodd;clip-rule:evenodd;stroke:#000000;stroke-width:9.6;stroke-linecap:square;stroke-linejoin:bevel;}
	
		.st8{fill-rule:evenodd;clip-rule:evenodd;fill:#FFFFFF;stroke:#FFFFFF;stroke-width:0.24;stroke-linecap:square;stroke-linejoin:bevel;}
	
		.st9{fill-rule:evenodd;clip-rule:evenodd;fill:#FFFFFF;stroke:#FFFFFF;stroke-width:1.2708;stroke-linecap:round;stroke-linejoin:round;stroke-miterlimit:4.236;}
</style>
<sodipodi:namedview  bordercolor="#000000" borderopacity="0.25" id="namedview408" inkscape:current-layer="svg406" inkscape:cx="1248.2697" inkscape:cy="367.2809" inkscape:deskcolor="#d1d1d1" inkscape:document-units="pt" inkscape:pagecheckerboard="0" inkscape:pageopacity="0.0" inkscape:showpageshadow="2" inkscape:window-height="1017" inkscape:window-maximized="1" inkscape:window-width="1920" inkscape:window-x="-8" inkscape:window-y="-8" inkscape:zoom="0.61805556" pagecolor="#ffffff" showgrid="false">
	</sodipodi:namedview>
<g>
	<path id="shape0" class="st0" d="M-29.8-31.4l0,648.3l2261.8,0V-31.4L-29.8-31.4"/>
	<path id="shape011" class="st1" d="M28.5,27.6l702.7,0l1.6,1.8l0.7,521l-1.3,1.2l-704.3,0.1l-0.7-0.7L28.5,27.6z"/>
	<path id="shape07" class="st2" d="M113.9,152.5c-5.2-14.1,4.5-27.8,19.8-34.8c17.1-5.3,35.9-4.1,42.2,14l49.5,129.4
		c7.8,17.1,2.9,28.3-16,37.9c-15,7.4-32.1,5.7-40.6-13.8C163.6,277.9,145.2,233.6,113.9,152.5z"/>
	<path id="shape09" sodipodi:nodetypes="csccscc" class="st2" d="M336.9,150.4c0.6-16.9,7.2-28.4,19.8-34.8
		c12.6-6.3,23.4-0.1,38.9,15.5l53.8,128.6c4.5,17.2-0.8,29.5-15.8,36.8c-15,7.4-28.9,2.9-41.8-13.4
		C386.6,275.9,368.3,231.6,336.9,150.4z"/>
	<path id="shape0111" class="st2" d="M399.7,150.1c-0.6-17.4-7.5-29.4-20.5-35.9c-13-6.5-35.3-4.9-43.6,14.4L228,408.6
		c-9.4,18.8,0.8,30.4,16.3,38.1c15.5,7.6,35,7.8,43.2-13.9C293,425.2,367.2,234,399.7,150.1z"/>
	<path id="shape01111" class="st2" d="M619.7,153.8c8.3-19.6-5.1-33.8-18.1-40.3s-31.4-5.6-43.6,14.4l-107.5,280
		c-6.3,17.4,0.8,30.4,16.3,38.1c15.5,7.6,34.7,7.1,43.2-13.9C515.4,424.5,587.2,237.7,619.7,153.8z"/>
	<path id="shape011111" class="st3" d="M1269.2,124.7l-136.6,270.4l-44.7-90.7l66.5-133.7l-163-0.4l72.2,134.6l-42.4,84.1l-142-266
		l-22.5,0.3l162,324.9l57.5-123.4l57,122.8l159.9-322.8L1269.2,124.7z M1122.2,193.2l-47.1,86.9l-43.8-87.7L1122.2,193.2"/>
	<path id="path393" class="st4" d="M1466.4,294.1l-1-30.9l153.2,0.2l-111.7,158.2l91.3,1.1l0.4,31.3H1441
		c38.6-52.9,77.1-105.7,115.7-158.6L1466.4,294.1"/>
	
		<path id="path395" sodipodi:cx="96.9557799379042" sodipodi:cy="97.2000001662846" sodipodi:end="6.28318530717958" sodipodi:open="true" sodipodi:rx="96.9557799379042" sodipodi:ry="97.2000001662846" sodipodi:start="2.66453525910038e-15" sodipodi:type="arc" class="st5" d="
		M1438.3,355.2c0-53.7-43.4-97.2-97-97.2s-97,43.5-97,97.2c0,53.7,43.4,97.2,97,97.2S1438.3,408.9,1438.3,355.2z"/>
	<ellipse id="shape02" class="st6" cx="1341.8" cy="355.7" rx="59.8" ry="60.6"/>
	<path id="shape1" class="st7" d="M1426.5,418.4l-40.5-31.6l7.2-20.3l56.9,1.4L1426.5,418.4"/>
	<path id="path399" class="st8" d="M1269.4,362.7l3.5-33.1l153,0.2l16.5,32.9L1269.4,362.7z"/>
	<path id="shape03" sodipodi:nodetypes="cccccccccccccccccccccccccc" class="st9" d="M1999.6,354.6l1.3,100.2l-31.7-0.4
		c-0.1-30.2-0.2-59.2-0.2-85.3c2.7-91-105.4-88.1-108.1-17.3l-0.4,103.3l-30.5,0.1c-0.1-64.1-1.1-128.2-1.1-192.3l32.2-0.2l0.8,13.1
		l1.6-1.1c29.9-11.2,71.6-10.8,98.2,1.4l2.3,1.2l2.2,1.3l2.1,1.4l2.1,1.5l2,1.6l2,1.7l1.9,1.8l1.8,1.9l1.8,2l1.7,2.1l1.7,2.2
		l1.6,2.2l1.5,2.3C1998.3,317.9,1999.9,334.5,1999.6,354.6"/>
	
		<path id="shape04" sodipodi:cx="96.9557799379042" sodipodi:cy="97.2000001662846" sodipodi:end="6.28318530717958" sodipodi:open="true" sodipodi:rx="96.9557799379042" sodipodi:ry="97.2000001662846" sodipodi:start="2.66453525910038e-15" sodipodi:type="arc" class="st5" d="
		M1812,355.1c0-53.7-43.4-97.2-97-97.2s-97,43.5-97,97.2c0,53.7,43.4,97.2,97,97.2S1812,408.7,1812,355.1z"/>
	<ellipse id="shape012" class="st6" cx="1715.5" cy="354.2" rx="59.8" ry="60.6"/>
	<path id="shape11" class="st7" d="M1800.2,418.2l-40.5-31.6l7.2-20.3l56.9,1.4L1800.2,418.2"/>
	<path id="shape013" class="st8" d="M1643,362.5l3.5-33.1l153,0.2l16.5,32.9L1643,362.5z"/>
</g>
</svg>
