<?xml version="1.0" encoding="utf-8"?>
<!-- Generator: Adobe Illustrator 25.0.0, SVG Export Plug-In . SVG Version: 6.00 Build 0)  -->
<svg version="1.1" id="Layer_1" xmlns="http://www.w3.org/2000/svg" xmlns:xlink="http://www.w3.org/1999/xlink" x="0px" y="0px"
	 viewBox="0 0 406.3 406.3" style="enable-background:new 0 0 406.3 406.3;" xml:space="preserve">
<style type="text/css">
	.st0{fill:#007FFB;}
	.st1{fill:none;stroke:#1A2E35;stroke-miterlimit:10;}
</style>
<g>
	<g>
		<path d="M98.1,311.9h11.3c2.9,0,5.5,0.3,7.6,0.8s4,1.6,5.7,3.1c4.5,3.8,6.7,9.6,6.7,17.5c0,2.6-0.2,4.9-0.7,7.1
			c-0.4,2.1-1.1,4-2.1,5.8s-2.1,3.2-3.6,4.6c-1.2,1-2.4,1.9-3.8,2.5c-1.4,0.6-2.8,1.1-4.4,1.3c-1.6,0.3-3.3,0.4-5.3,0.4H98.3
			c-1.6,0-2.8-0.2-3.6-0.7c-0.8-0.5-1.3-1.2-1.6-2c-0.2-0.9-0.4-2-0.4-3.4v-31.5c0-1.9,0.4-3.2,1.3-4.1
			C94.8,312.4,96.2,311.9,98.1,311.9z M101.4,318.8V348h6.6c1.4,0,2.6,0,3.4-0.1s1.7-0.3,2.5-0.6s1.6-0.8,2.3-1.3
			c2.9-2.5,4.4-6.7,4.4-12.7c0-4.2-0.6-7.4-1.9-9.5c-1.3-2.1-2.9-3.5-4.7-4s-4.1-0.9-6.8-0.9H101.4z"/>
		<path d="M144.5,344.1v6.7c0,1.6-0.4,2.8-1.1,3.6s-1.7,1.2-2.9,1.2c-1.2,0-2.1-0.4-2.8-1.2c-0.7-0.8-1.1-2-1.1-3.6v-22.3
			c0-3.6,1.3-5.4,3.9-5.4c1.3,0,2.3,0.4,2.9,1.3s0.9,2.1,1,3.7c1-1.6,1.9-2.9,2.9-3.7c1-0.8,2.3-1.3,4-1.3c1.7,0,3.3,0.4,4.9,1.3
			s2.4,2,2.4,3.3c0,1-0.3,1.8-1,2.4s-1.4,1-2.2,1c-0.3,0-1-0.2-2.1-0.5c-1.1-0.4-2.1-0.5-3-0.5c-1.2,0-2.1,0.3-2.9,0.9
			c-0.7,0.6-1.3,1.5-1.7,2.7s-0.7,2.7-0.8,4.3C144.6,339.6,144.5,341.7,144.5,344.1z"/>
		<path d="M166.9,319.4c-1.1,0-2.1-0.3-2.9-1s-1.2-1.7-1.2-2.9c0-1.1,0.4-2.1,1.2-2.8c0.8-0.7,1.8-1.1,2.8-1.1c1,0,2,0.3,2.8,1
			c0.8,0.7,1.2,1.6,1.2,2.9c0,1.2-0.4,2.2-1.2,2.9C168.9,319,167.9,319.4,166.9,319.4z M170.8,327.6v23.1c0,1.6-0.4,2.8-1.1,3.6
			s-1.7,1.2-2.9,1.2s-2.1-0.4-2.9-1.3s-1.1-2-1.1-3.6v-22.9c0-1.6,0.4-2.8,1.1-3.6s1.7-1.2,2.9-1.2s2.1,0.4,2.9,1.2
			S170.8,326.2,170.8,327.6z"/>
		<path d="M184.7,328.1l6.5,18.2l7-19c0.5-1.5,1.1-2.6,1.6-3.2s1.3-1,2.4-1c1,0,1.9,0.3,2.6,1s1.1,1.5,1.1,2.4
			c0,0.4-0.1,0.8-0.2,1.2s-0.3,0.9-0.4,1.3s-0.4,0.9-0.6,1.4l-7.7,19c-0.2,0.5-0.5,1.2-0.8,2.1c-0.3,0.8-0.7,1.6-1.1,2.2
			c-0.4,0.6-0.9,1.1-1.6,1.4s-1.4,0.5-2.2,0.5c-1.1,0-2-0.3-2.7-0.8s-1.2-1.1-1.5-1.7s-0.9-1.8-1.6-3.6l-7.6-18.8
			c-0.2-0.5-0.4-0.9-0.5-1.4c-0.2-0.5-0.3-0.9-0.5-1.4c-0.1-0.5-0.2-0.9-0.2-1.3c0-0.5,0.2-1.1,0.5-1.6c0.3-0.5,0.8-1,1.4-1.3
			s1.2-0.5,1.9-0.5c1.3,0,2.2,0.4,2.7,1.1S184.1,326.3,184.7,328.1z"/>
		<path class="st0" d="M220.7,316.5v31.3h17.6c1.4,0,2.5,0.3,3.2,1s1.1,1.5,1.1,2.6c0,1.1-0.4,1.9-1.1,2.6s-1.8,1-3.3,1h-21
			c-1.9,0-3.3-0.4-4.1-1.3s-1.2-2.2-1.2-4.1v-33.1c0-1.8,0.4-3.1,1.2-4s1.8-1.3,3.1-1.3c1.3,0,2.4,0.4,3.2,1.3
			S220.7,314.7,220.7,316.5z"/>
		<path class="st0" d="M277.8,339.4c0,2.4-0.4,4.6-1.1,6.6s-1.8,3.7-3.2,5.2s-3.1,2.6-5,3.3s-4.2,1.2-6.6,1.2
			c-2.4,0-4.6-0.4-6.5-1.2s-3.6-1.9-5-3.4s-2.5-3.2-3.2-5.2s-1.1-4.2-1.1-6.6c0-2.4,0.4-4.6,1.1-6.7s1.8-3.7,3.2-5.2s3.1-2.5,5-3.3
			s4.2-1.2,6.5-1.2c2.4,0,4.6,0.4,6.6,1.2s3.7,1.9,5.1,3.3s2.5,3.2,3.2,5.2S277.8,337,277.8,339.4z M269.8,339.4
			c0-3.3-0.7-5.8-2.2-7.6s-3.4-2.7-5.8-2.7c-1.6,0-2.9,0.4-4.1,1.2s-2.1,2-2.8,3.6s-1,3.4-1,5.5c0,2.1,0.3,3.9,1,5.5
			s1.5,2.8,2.7,3.6s2.6,1.2,4.2,1.2c2.4,0,4.4-0.9,5.8-2.7S269.8,342.6,269.8,339.4z"/>
		<path class="st0" d="M313.5,329v23.2c0,2.7-0.3,4.9-0.8,6.9s-1.5,3.5-2.7,4.7s-2.9,2.2-4.9,2.8s-4.5,0.9-7.5,0.9
			c-2.8,0-5.2-0.4-7.4-1.2s-3.8-1.8-5-3s-1.8-2.5-1.8-3.8c0-1,0.3-1.8,1-2.4s1.5-0.9,2.4-0.9c1.2,0,2.2,0.5,3.1,1.6
			c0.4,0.5,0.9,1.1,1.3,1.6s1,1,1.5,1.4s1.2,0.7,2,0.8s1.7,0.3,2.7,0.3c2.1,0,3.7-0.3,4.8-0.9s1.9-1.4,2.4-2.4s0.7-2.1,0.8-3.3
			s0.1-3.1,0.2-5.7c-1.2,1.7-2.7,3-4.3,3.9s-3.5,1.3-5.8,1.3c-2.7,0-5-0.7-7-2.1s-3.5-3.3-4.6-5.7s-1.6-5.3-1.6-8.5
			c0-2.4,0.3-4.6,1-6.5s1.6-3.6,2.8-4.9s2.6-2.3,4.2-3s3.3-1,5.2-1c2.3,0,4.2,0.4,5.9,1.3s3.2,2.2,4.6,4.1v-1.1c0-1.4,0.3-2.5,1-3.2
			s1.6-1.1,2.6-1.1c1.5,0,2.6,0.5,3.1,1.5S313.5,327.1,313.5,329z M290.3,339.1c0,3.2,0.7,5.7,2.1,7.4s3.2,2.5,5.5,2.5
			c1.3,0,2.6-0.4,3.8-1.1s2.1-1.8,2.9-3.2s1.1-3.2,1.1-5.2c0-3.3-0.7-5.8-2.2-7.6s-3.3-2.7-5.7-2.7c-2.3,0-4.1,0.9-5.5,2.6
			S290.3,335.9,290.3,339.1z"/>
	</g>
	<g>
		<path d="M47.9,298.1V108.2h118l21.7,21.7v146.4l-21.7,21.7H47.9z M72.3,276.4h90.8V129.9H72.3V276.4z"/>
		<path d="M220.1,298.1V108.2h24.4v168.1h90.6v-54.2h23.3v75.9H220.1z"/>
	</g>
	<circle class="st1" cx="203.2" cy="203.2" r="202.7"/>
</g>
</svg>
