<?xml version="1.0" encoding="utf-8"?>
<!-- Generator: Adobe Illustrator 25.0.0, SVG Export Plug-In . SVG Version: 6.00 Build 0)  -->
<svg version="1.1" id="Layer_1" xmlns="http://www.w3.org/2000/svg" xmlns:xlink="http://www.w3.org/1999/xlink" x="0px" y="0px"
	 viewBox="0 0 1351 344.7" style="enable-background:new 0 0 1351 344.7;" xml:space="preserve">
<style type="text/css">
	.st0{fill:#FFFFFF;}
	.st1{fill:#9E005D;}
</style>
<g>
	<path d="M132.5,11.4c-3.4-1.4-11-4-25.2-4.7c0,0-30.1,0-84.1,0c-1.9,0-5.9,0.6-9.5,3.3c-4.3,3.3-6,8.2-6.7,11.7
		c0,50.7,0,101.3,0,152h182.1c0.3-9.1,0.4-22-0.6-37.4c-1.8-25.2-3.3-47.7-14-73C167.5,46.7,156.9,21.8,132.5,11.4z"/>
	<path class="st0" d="M164.1,130.3c0.1,0-15.5-41.6-33.4-76.3c0,0-10.2-19.9-21.7-21.6c-2-0.3-4.2-0.5-4.2-0.5
		c-2.4-0.2-4.5-0.2-5.8-0.2v0H32.1v71.8h66.8h1.7c10,8.3,28.4,26.7,28.4,26.7H164.1"/>
	<circle cx="93.9" cy="242.2" r="43.4"/>
	<path d="M189.1,193.8h-51.9c4.2,2.9,10.3,8.1,15.2,16.2c9.1,15.2,7.5,30.4,6.7,35.6c10,0,20,0,30.1,0"/>
	<path d="M0,193.8h48.8c-3.9,2.9-9.7,8.1-14.3,16.2c-8.6,15.2-7,30.4-6.3,35.6c-9.4,0-18.8,0-28.3,0"/>
	<g>
		<path d="M269.8,201.4v40.9c0,9.9-2.3,17.4-7,22.3c-4.7,5-10.6,7.4-17.8,7.4c-7.1,0-12.9-2.5-17.4-7.5c-4.5-5-6.8-12.4-6.8-22.3
			V105.9c0-22,8-33,23.9-33c8.1,0,14,2.6,17.6,7.7c3.6,5.1,5.6,12.7,5.9,22.8c5.9-10,11.9-17.6,18-22.8c6.2-5.1,14.4-7.7,24.7-7.7
			c10.3,0,20.3,2.6,30,7.7c9.7,5.1,14.5,12,14.5,20.5c0,6-2.1,10.9-6.2,14.8c-4.1,3.9-8.6,5.8-13.4,5.8c-1.8,0-6.1-1.1-13-3.3
			c-6.9-2.2-13-3.3-18.2-3.3c-7.2,0-13,1.9-17.6,5.7c-4.5,3.8-8.1,9.4-10.6,16.8c-2.5,7.4-4.2,16.2-5.2,26.5
			C270.2,174.2,269.8,186.6,269.8,201.4z"/>
		<path d="M416.1,50.1c-6.8,0-12.7-2.1-17.5-6.3c-4.8-4.2-7.3-10.1-7.3-17.8c0-6.9,2.5-12.7,7.4-17.1c5-4.5,10.7-6.7,17.3-6.7
			c6.3,0,12,2,16.9,6.1c4.9,4.1,7.4,10,7.4,17.8c0,7.5-2.4,13.4-7.2,17.7C428.3,47.9,422.6,50.1,416.1,50.1z M440.3,100.7v141.6
			c0,9.8-2.3,17.2-7,22.3c-4.7,5-10.6,7.5-17.8,7.5s-13-2.6-17.5-7.7c-4.5-5.1-6.7-12.5-6.7-22.1V102.1c0-9.7,2.2-17,6.7-21.9
			c4.5-4.9,10.3-7.4,17.5-7.4s13.1,2.5,17.8,7.4C437.9,85.1,440.3,91.9,440.3,100.7z"/>
		<path d="M534.7,103.4l39.7,111.3l42.7-116.1c3.3-9.3,6.6-15.9,9.9-19.8c3.2-3.9,8.1-5.8,14.7-5.8c6.2,0,11.5,2.1,15.9,6.3
			c4.4,4.2,6.6,9,6.6,14.5c0,2.2-0.4,4.7-1.2,7.5c-0.8,2.9-1.7,5.6-2.7,8.1c-1,2.5-2.2,5.4-3.5,8.6l-47,116.6
			c-1.3,3.4-3,7.6-5.1,12.7c-2.1,5.1-4.4,9.5-7,13.2c-2.6,3.7-5.7,6.5-9.5,8.5c-3.8,2-8.3,3.1-13.7,3.1c-6.9,0-12.5-1.6-16.6-4.8
			c-4.1-3.2-7.2-6.6-9.2-10.4c-2-3.8-5.3-11.2-10-22.3L492,119.2c-1.1-2.9-2.2-5.7-3.3-8.6c-1.1-2.9-2.1-5.8-2.9-8.8
			c-0.8-3-1.2-5.6-1.2-7.7c0-3.3,1-6.7,3.1-10c2-3.3,4.8-6,8.4-8.1c3.6-2.1,7.5-3.1,11.7-3.1c8.1,0,13.7,2.3,16.8,7
			C527.6,84.5,531,92.4,534.7,103.4z"/>
		<path d="M764.1,32.3v191.5h108c8.6,0,15.2,2.1,19.8,6.3c4.6,4.2,6.9,9.5,6.9,15.8c0,6.5-2.3,11.7-6.8,15.7c-4.5,4-11.2,6-19.9,6
			H743.5c-11.6,0-20-2.6-25-7.7c-5.1-5.1-7.6-13.5-7.6-24.9V32.3c0-10.8,2.4-18.8,7.3-24.2S729.3,0,737.2,0c8,0,14.5,2.7,19.5,8
			C761.6,13.3,764.1,21.4,764.1,32.3z"/>
		<path d="M1123.1,172.5c0,14.6-2.3,28.1-6.8,40.4c-4.5,12.3-11.1,22.9-19.7,31.8c-8.6,8.9-18.9,15.6-30.9,20.4
			c-12,4.7-25.4,7.1-40.4,7.1c-14.8,0-28.2-2.4-40-7.2c-11.8-4.8-22.1-11.6-30.8-20.5c-8.7-8.9-15.3-19.4-19.7-31.6
			c-4.5-12.1-6.7-25.6-6.7-40.3c0-14.8,2.3-28.4,6.8-40.7c4.5-12.3,11.1-22.9,19.6-31.6c8.5-8.7,18.8-15.5,30.9-20.2
			c12.1-4.7,25.4-7.1,40-7.1c14.8,0,28.3,2.4,40.4,7.2c12.1,4.8,22.4,11.6,31,20.5c8.6,8.9,15.2,19.4,19.7,31.6
			C1120.8,144.3,1123.1,157.7,1123.1,172.5z M1073.9,172.5c0-20-4.4-35.5-13.2-46.7s-20.6-16.7-35.4-16.7c-9.6,0-18,2.5-25.3,7.4
			c-7.3,5-12.9,12.3-16.9,22c-3.9,9.7-5.9,21-5.9,33.9c0,12.8,1.9,24,5.8,33.6c3.9,9.6,9.4,16.9,16.7,22c7.2,5.1,15.8,7.6,25.6,7.6
			c14.8,0,26.6-5.6,35.4-16.8C1069.5,207.7,1073.9,192.2,1073.9,172.5z"/>
		<path d="M1351,108.8v142.3c0,16.3-1.7,30.3-5.2,42c-3.5,11.7-9,21.4-16.7,29.1c-7.7,7.7-17.7,13.3-30.1,17
			c-12.4,3.7-27.8,5.6-46.2,5.6c-16.9,0-31.9-2.4-45.2-7.1c-13.3-4.7-23.5-10.8-30.7-18.3c-7.2-7.5-10.8-15.2-10.8-23.1
			c0-6,2-10.9,6.1-14.6c4.1-3.8,9-5.7,14.7-5.7c7.2,0,13.5,3.2,18.8,9.5c2.6,3.2,5.4,6.5,8.2,9.8c2.8,3.3,5.9,6.1,9.3,8.4
			c3.4,2.3,7.5,4.1,12.3,5.2c4.8,1.1,10.3,1.7,16.5,1.7c12.7,0,22.5-1.8,29.5-5.3c7-3.5,11.9-8.5,14.7-14.8
			c2.8-6.3,4.5-13.1,4.9-20.4c0.5-7.2,0.8-18.9,1.1-34.9c-7.5,10.5-16.2,18.5-26.1,24c-9.9,5.5-21.6,8.3-35.3,8.3
			c-16.4,0-30.7-4.2-43-12.6c-12.3-8.4-21.7-20.1-28.3-35.2c-6.6-15.1-9.9-32.5-9.9-52.2c0-14.7,2-28,6-39.8
			c4-11.8,9.7-21.8,17.1-30c7.4-8.1,16-14.3,25.7-18.4s20.3-6.2,31.9-6.2c13.9,0,25.9,2.7,36.1,8c10.2,5.3,19.6,13.7,28.4,25v-6.6
			c0-8.5,2.1-15.1,6.3-19.7c4.2-4.7,9.6-7,16.2-7c9.4,0,15.7,3.1,18.8,9.2C1349.4,88.3,1351,97.1,1351,108.8z M1209,170.8
			c0,19.9,4.3,34.9,13,45c8.7,10.2,19.9,15.3,33.6,15.3c8.1,0,15.8-2.2,23.1-6.6c7.2-4.4,13.1-10.9,17.7-19.7
			c4.5-8.8,6.8-19.5,6.8-32c0-20-4.4-35.5-13.2-46.7c-8.8-11.1-20.4-16.7-34.7-16.7c-14,0-25.2,5.3-33.6,16
			C1213.3,136.1,1209,151.2,1209,170.8z"/>
	</g>
</g>
</svg>
