<?xml version="1.0" encoding="utf-8"?>
<!-- Generator: Adobe Illustrator 25.0.0, SVG Export Plug-In . SVG Version: 6.00 Build 0)  -->
<svg version="1.1" id="Layer_1" xmlns="http://www.w3.org/2000/svg" xmlns:xlink="http://www.w3.org/1999/xlink" x="0px" y="0px"
	 viewBox="0 0 428.5 420.1" style="enable-background:new 0 0 428.5 420.1;" xml:space="preserve">
<style type="text/css">
	.st0{fill:#2A72B4;}
</style>
<g>
	<g>
		<path d="M47,420.1v-210h130.5l24,24v162l-24,24H47z M74,396.1h100.5v-162H74V396.1z"/>
		<path d="M237.5,420.1v-210h27v186h100.2v-60h25.8v84H237.5z"/>
	</g>
	<polygon class="st0" points="428.5,106.9 414.2,92.7 275.8,82.5 256.8,14.1 258.4,14.1 253.1,6 222.4,0 41.3,0.1 13.9,5.8 
		7.1,14.2 114.6,14.1 8.1,14.2 0,77.6 0,171 19.5,171 42.1,136.6 111.3,136.6 136.1,187.8 295.8,187.7 342.9,134.8 405.6,134.8 
		419,145.4 428.5,145.3 	"/>
</g>
</svg>
